<svg width="132" height="47" viewBox="0 0 132 47" fill="none" xmlns="http://www.w3.org/2000/svg">
<path d="M1.14441e-05 24.4835L6.62055 8.63361L23.9637 46.9293L10.1308 46.9375L1.14441e-05 24.4835Z" fill="#637338"/>
<path d="M7.62939e-05 24.3367L7.0344 40.0398L23.9677 0.0624962H10.1309L7.62939e-05 24.3367Z" fill="#A3CB38"/>
<path fill-rule="evenodd" clip-rule="evenodd" d="M26.3159 15.6695C27.194 14.553 28.4584 13.8188 30.0641 13.8188H40.9848V17.3613H30.1049C29.5418 17.3613 29.1908 17.7027 28.9474 18.0123C28.673 18.3612 28.4873 18.892 28.4781 19.4856C28.4688 20.0795 28.6375 20.5851 28.8878 20.9076C29.1035 21.1856 29.4544 21.4328 30.1049 21.4328H35.2515C37.0104 21.4328 38.4346 22.1559 39.4063 23.3426C40.3433 24.4868 40.7644 25.941 40.8078 27.3035C40.851 28.6602 40.5257 30.0919 39.7723 31.2363C38.9898 32.4247 37.7037 33.1399 36.0804 33.1399H24.9682L24.9678 29.7558H36.0705C36.4345 29.7558 36.7015 29.5374 36.9621 29.1416C37.2227 28.7458 37.4009 28.124 37.3787 27.4271C37.3567 26.7361 37.1436 26.1368 36.8194 25.7408C36.5299 25.3873 36.066 25.0836 35.2515 25.0836H30.1049C28.468 25.0836 27.133 24.3801 26.2421 23.232C25.3857 22.1285 25.0271 20.7326 25.0474 19.4251C25.0678 18.1173 25.4688 16.7467 26.3159 15.6695Z" fill="#FCFCFC"/>
<path d="M57.6429 13.8188V17.3829H52.0179V33.1399H48.6429V17.3829H43.0179V13.8188H57.6429Z" fill="#FCFCFC"/>
<path d="M106.58 19.2587V33.1399H103.201V22.4477L98.7054 33.1399H95.1429L90.8304 22.8228V33.1399H87.4554V19.2587H93.0804L97.0179 29.3883L100.955 19.2587H106.58Z" fill="#A3CB38"/>
<path d="M81.8304 22.6352H83.6011H85.3929V33.14H81.8304V22.6352ZM83.6011 21.6327C82.9822 21.6327 82.48 21.4711 82.0947 21.1481C81.7093 20.8126 81.5166 20.359 81.5166 19.7875C81.5166 19.2283 81.7093 18.781 82.0947 18.4455C82.48 18.11 82.9822 17.9423 83.6011 17.9423C84.2434 17.9423 84.7514 18.11 85.1251 18.4455C85.5105 18.781 85.7032 19.2283 85.7032 19.7875C85.7032 20.359 85.5105 20.8126 85.1251 21.1481C84.7514 21.4711 84.2434 21.6327 83.6011 21.6327Z" fill="#A3CB38"/>
<ellipse cx="77.5408" cy="30.8875" rx="2.1557" ry="2.29371" fill="#A3CB38"/>
<path d="M63.0804 29.7634H73.5804L73.5651 33.1399H59.7054V13.8188H63.0804V29.7634Z" fill="#FCFCFC"/>
<path d="M63.0804 29.7634H73.5804V33.1399H59.7054L63.0804 29.7634Z" fill="#A3CB38"/>
<path d="M131.25 24.3367L124.216 40.0398L107.282 0.0624962H121.119L131.25 24.3367Z" fill="#637338"/>
<path d="M131.25 24.4835L124.63 8.63361L107.286 46.9293L121.119 46.9375L131.25 24.4835Z" fill="#A3CB38"/>
</svg>
